# xmcd
#
# Track frame offsets: 
#        150
#        17953
#        33825
#        50674
#        68684
#        86305
#        105480
#        123798
#        141880
#        158882
#
# Disc length: 2343 seconds
#
# Revision: 0
# Processed by: cddbd v1.5.1PL2 Copyright (c) Steve Scherf et al.
# Submitted via: ExactAudioCopy v0.95b4
#
DISCID=7809250a
DTITLE=บัญชี กับ อาทิตย์ - บทที่ 1 
DYEAR=2005
DGENRE=Country
TTITLE0=ผู้ชายเสียศูนย์
TTITLE1=ขออภัยในความไม่สะดวก
TTITLE2=ฉลองช้ำ
TTITLE3=สวยเกินพิกัด
TTITLE4=ลงขัน
TTITLE5=วอนอีเกิ้ง
TTITLE6=ไอ้หนุ่มย่านเมีย
TTITLE7=พ่อช้างกล่อมลูก
TTITLE8=ขัง
TTITLE9=บ่อยากดัง
EXTD=
EXTT0=
EXTT1=
EXTT2=
EXTT3=
EXTT4=
EXTT5=
EXTT6=
EXTT7=
EXTT8=
EXTT9=
PLAYORDER=
